<mxfile host="Electron" modified="2024-02-28T21:49:50.235Z" agent="Mozilla/5.0 (X11; Linux x86_64) AppleWebKit/537.36 (KHTML, like Gecko) draw.io/23.1.5 Chrome/120.0.6099.109 Electron/28.1.0 Safari/537.36" etag="DM54SqECajvZkYn5d04A" version="23.1.5" type="device">
  <diagram name="Page-1" id="tHqR2zgNHmvqM0oNNRZh">
    <mxGraphModel dx="1135" dy="703" grid="1" gridSize="10" guides="1" tooltips="1" connect="1" arrows="1" fold="1" page="1" pageScale="1" pageWidth="850" pageHeight="1100" math="0" shadow="0">
      <root>
        <mxCell id="0" />
        <mxCell id="1" parent="0" />
        <mxCell id="y-BUJ9J83L-L55bnfvqN-15" value="J" style="ellipse;whiteSpace=wrap;html=1;aspect=fixed;fontFamily=Times New Roman;fontSize=21;strokeWidth=2;" vertex="1" parent="1">
          <mxGeometry x="480" y="440" width="40" height="40" as="geometry" />
        </mxCell>
        <mxCell id="y-BUJ9J83L-L55bnfvqN-16" value="K" style="ellipse;whiteSpace=wrap;html=1;aspect=fixed;fontFamily=Times New Roman;fontSize=21;strokeWidth=2;" vertex="1" parent="1">
          <mxGeometry x="640" y="440" width="40" height="40" as="geometry" />
        </mxCell>
        <mxCell id="y-BUJ9J83L-L55bnfvqN-19" value="L" style="ellipse;whiteSpace=wrap;html=1;aspect=fixed;fontFamily=Times New Roman;fontSize=21;strokeWidth=2;" vertex="1" parent="1">
          <mxGeometry x="760" y="360" width="40" height="40" as="geometry" />
        </mxCell>
        <mxCell id="y-BUJ9J83L-L55bnfvqN-21" value="N" style="ellipse;whiteSpace=wrap;html=1;aspect=fixed;fontFamily=Times New Roman;fontSize=21;strokeWidth=2;" vertex="1" parent="1">
          <mxGeometry x="760" y="520" width="40" height="40" as="geometry" />
        </mxCell>
        <mxCell id="y-BUJ9J83L-L55bnfvqN-22" value="Q" style="ellipse;whiteSpace=wrap;html=1;aspect=fixed;fontFamily=Times New Roman;fontSize=21;strokeWidth=2;" vertex="1" parent="1">
          <mxGeometry x="840" y="600" width="40" height="40" as="geometry" />
        </mxCell>
        <mxCell id="y-BUJ9J83L-L55bnfvqN-23" value="P" style="ellipse;whiteSpace=wrap;html=1;aspect=fixed;fontFamily=Times New Roman;fontSize=21;strokeWidth=2;" vertex="1" parent="1">
          <mxGeometry x="840" y="440" width="40" height="40" as="geometry" />
        </mxCell>
        <mxCell id="y-BUJ9J83L-L55bnfvqN-25" value="O" style="ellipse;whiteSpace=wrap;html=1;aspect=fixed;fontFamily=Times New Roman;fontSize=21;strokeWidth=2;" vertex="1" parent="1">
          <mxGeometry x="840" y="280" width="40" height="40" as="geometry" />
        </mxCell>
        <mxCell id="y-BUJ9J83L-L55bnfvqN-27" value="2" style="endArrow=classic;startArrow=classic;html=1;rounded=0;entryX=0;entryY=0;entryDx=0;entryDy=0;exitX=1;exitY=1;exitDx=0;exitDy=0;fontFamily=Times New Roman;fontSize=21;strokeWidth=2;" edge="1" parent="1" source="y-BUJ9J83L-L55bnfvqN-21" target="y-BUJ9J83L-L55bnfvqN-22">
          <mxGeometry width="50" height="50" relative="1" as="geometry">
            <mxPoint x="670" y="460" as="sourcePoint" />
            <mxPoint x="720" y="410" as="targetPoint" />
          </mxGeometry>
        </mxCell>
        <mxCell id="y-BUJ9J83L-L55bnfvqN-30" value="2" style="endArrow=classic;startArrow=classic;html=1;rounded=0;entryX=0;entryY=0;entryDx=0;entryDy=0;exitX=1;exitY=1;exitDx=0;exitDy=0;fontFamily=Times New Roman;fontSize=21;strokeWidth=2;" edge="1" parent="1" source="y-BUJ9J83L-L55bnfvqN-19" target="y-BUJ9J83L-L55bnfvqN-23">
          <mxGeometry width="50" height="50" relative="1" as="geometry">
            <mxPoint x="804" y="536" as="sourcePoint" />
            <mxPoint x="856" y="484" as="targetPoint" />
          </mxGeometry>
        </mxCell>
        <mxCell id="y-BUJ9J83L-L55bnfvqN-31" value="2" style="endArrow=classic;startArrow=classic;html=1;rounded=0;entryX=0;entryY=1;entryDx=0;entryDy=0;exitX=1;exitY=0;exitDx=0;exitDy=0;fontFamily=Times New Roman;fontSize=21;strokeWidth=2;" edge="1" parent="1" source="y-BUJ9J83L-L55bnfvqN-19" target="y-BUJ9J83L-L55bnfvqN-25">
          <mxGeometry width="50" height="50" relative="1" as="geometry">
            <mxPoint x="804" y="404" as="sourcePoint" />
            <mxPoint x="856" y="456" as="targetPoint" />
          </mxGeometry>
        </mxCell>
        <mxCell id="y-BUJ9J83L-L55bnfvqN-32" value="R" style="ellipse;whiteSpace=wrap;html=1;aspect=fixed;fontFamily=Times New Roman;fontSize=21;strokeWidth=2;" vertex="1" parent="1">
          <mxGeometry x="880" y="520" width="40" height="40" as="geometry" />
        </mxCell>
        <mxCell id="y-BUJ9J83L-L55bnfvqN-34" value="2" style="endArrow=classic;startArrow=classic;html=1;rounded=0;entryX=0;entryY=0.5;entryDx=0;entryDy=0;exitX=1;exitY=0.5;exitDx=0;exitDy=0;fontFamily=Times New Roman;fontSize=21;strokeWidth=2;" edge="1" parent="1" source="y-BUJ9J83L-L55bnfvqN-21" target="y-BUJ9J83L-L55bnfvqN-32">
          <mxGeometry width="50" height="50" relative="1" as="geometry">
            <mxPoint x="804" y="564" as="sourcePoint" />
            <mxPoint x="856" y="616" as="targetPoint" />
          </mxGeometry>
        </mxCell>
        <mxCell id="y-BUJ9J83L-L55bnfvqN-35" value="3" style="endArrow=classic;startArrow=classic;html=1;rounded=0;exitX=1;exitY=1;exitDx=0;exitDy=0;entryX=0;entryY=0;entryDx=0;entryDy=0;fontFamily=Times New Roman;fontSize=21;strokeWidth=2;" edge="1" parent="1" source="y-BUJ9J83L-L55bnfvqN-16" target="y-BUJ9J83L-L55bnfvqN-21">
          <mxGeometry width="50" height="50" relative="1" as="geometry">
            <mxPoint x="700" y="480" as="sourcePoint" />
            <mxPoint x="750" y="430" as="targetPoint" />
          </mxGeometry>
        </mxCell>
        <mxCell id="y-BUJ9J83L-L55bnfvqN-36" value="3" style="endArrow=classic;startArrow=classic;html=1;rounded=0;entryX=0;entryY=1;entryDx=0;entryDy=0;exitX=1;exitY=0;exitDx=0;exitDy=0;fontFamily=Times New Roman;fontSize=21;strokeWidth=2;" edge="1" parent="1" source="y-BUJ9J83L-L55bnfvqN-16" target="y-BUJ9J83L-L55bnfvqN-19">
          <mxGeometry width="50" height="50" relative="1" as="geometry">
            <mxPoint x="700" y="440" as="sourcePoint" />
            <mxPoint x="776" y="536" as="targetPoint" />
          </mxGeometry>
        </mxCell>
        <mxCell id="y-BUJ9J83L-L55bnfvqN-37" value="M" style="ellipse;whiteSpace=wrap;html=1;aspect=fixed;fontFamily=Times New Roman;fontSize=21;strokeWidth=2;" vertex="1" parent="1">
          <mxGeometry x="760" y="460" width="40" height="40" as="geometry" />
        </mxCell>
        <mxCell id="y-BUJ9J83L-L55bnfvqN-38" value="1" style="endArrow=classic;startArrow=classic;html=1;rounded=0;entryX=0.5;entryY=0;entryDx=0;entryDy=0;exitX=0.5;exitY=1;exitDx=0;exitDy=0;fontFamily=Times New Roman;fontSize=21;strokeWidth=2;" edge="1" parent="1" source="y-BUJ9J83L-L55bnfvqN-19" target="y-BUJ9J83L-L55bnfvqN-37">
          <mxGeometry width="50" height="50" relative="1" as="geometry">
            <mxPoint x="804" y="404" as="sourcePoint" />
            <mxPoint x="856" y="456" as="targetPoint" />
          </mxGeometry>
        </mxCell>
        <mxCell id="y-BUJ9J83L-L55bnfvqN-39" value="3" style="endArrow=classic;startArrow=classic;html=1;rounded=0;exitX=1;exitY=0.5;exitDx=0;exitDy=0;entryX=0;entryY=0.5;entryDx=0;entryDy=0;fontFamily=Times New Roman;fontSize=21;strokeWidth=2;" edge="1" parent="1" source="y-BUJ9J83L-L55bnfvqN-15" target="y-BUJ9J83L-L55bnfvqN-16">
          <mxGeometry width="50" height="50" relative="1" as="geometry">
            <mxPoint x="700" y="480" as="sourcePoint" />
            <mxPoint x="750" y="430" as="targetPoint" />
          </mxGeometry>
        </mxCell>
        <mxCell id="y-BUJ9J83L-L55bnfvqN-40" value="G" style="ellipse;whiteSpace=wrap;html=1;aspect=fixed;fontFamily=Times New Roman;fontSize=21;strokeWidth=2;" vertex="1" parent="1">
          <mxGeometry x="360" y="440" width="40" height="40" as="geometry" />
        </mxCell>
        <mxCell id="y-BUJ9J83L-L55bnfvqN-41" value="H" style="ellipse;whiteSpace=wrap;html=1;aspect=fixed;fontFamily=Times New Roman;fontSize=21;strokeWidth=2;" vertex="1" parent="1">
          <mxGeometry x="360" y="520" width="40" height="40" as="geometry" />
        </mxCell>
        <mxCell id="y-BUJ9J83L-L55bnfvqN-42" value="F" style="ellipse;whiteSpace=wrap;html=1;aspect=fixed;fontFamily=Times New Roman;fontSize=21;strokeWidth=2;" vertex="1" parent="1">
          <mxGeometry x="360" y="360" width="40" height="40" as="geometry" />
        </mxCell>
        <mxCell id="y-BUJ9J83L-L55bnfvqN-43" value="C" style="ellipse;whiteSpace=wrap;html=1;aspect=fixed;fontFamily=Times New Roman;fontSize=21;strokeWidth=2;" vertex="1" parent="1">
          <mxGeometry x="280" y="280" width="40" height="40" as="geometry" />
        </mxCell>
        <mxCell id="y-BUJ9J83L-L55bnfvqN-44" value="A" style="ellipse;whiteSpace=wrap;html=1;aspect=fixed;fontFamily=Times New Roman;fontSize=21;strokeWidth=2;" vertex="1" parent="1">
          <mxGeometry x="240" y="360" width="40" height="40" as="geometry" />
        </mxCell>
        <mxCell id="y-BUJ9J83L-L55bnfvqN-45" value="D" style="ellipse;whiteSpace=wrap;html=1;aspect=fixed;fontFamily=Times New Roman;fontSize=21;strokeWidth=2;" vertex="1" parent="1">
          <mxGeometry x="280" y="400" width="40" height="40" as="geometry" />
        </mxCell>
        <mxCell id="y-BUJ9J83L-L55bnfvqN-46" value="B" style="ellipse;whiteSpace=wrap;html=1;aspect=fixed;fontFamily=Times New Roman;fontSize=21;strokeWidth=2;" vertex="1" parent="1">
          <mxGeometry x="240" y="470" width="40" height="40" as="geometry" />
        </mxCell>
        <mxCell id="y-BUJ9J83L-L55bnfvqN-47" value="E" style="ellipse;whiteSpace=wrap;html=1;aspect=fixed;fontFamily=Times New Roman;fontSize=21;strokeWidth=2;" vertex="1" parent="1">
          <mxGeometry x="280" y="600" width="40" height="40" as="geometry" />
        </mxCell>
        <mxCell id="y-BUJ9J83L-L55bnfvqN-48" value="I" style="ellipse;whiteSpace=wrap;html=1;aspect=fixed;fontFamily=Times New Roman;fontSize=21;strokeWidth=2;" vertex="1" parent="1">
          <mxGeometry x="440" y="560" width="40" height="40" as="geometry" />
        </mxCell>
        <mxCell id="y-BUJ9J83L-L55bnfvqN-49" value="2" style="endArrow=classic;startArrow=classic;html=1;rounded=0;exitX=1;exitY=0;exitDx=0;exitDy=0;entryX=0;entryY=1;entryDx=0;entryDy=0;fontFamily=Times New Roman;fontSize=21;strokeWidth=2;" edge="1" parent="1" source="y-BUJ9J83L-L55bnfvqN-47" target="y-BUJ9J83L-L55bnfvqN-41">
          <mxGeometry width="50" height="50" relative="1" as="geometry">
            <mxPoint x="340" y="620" as="sourcePoint" />
            <mxPoint x="390" y="570" as="targetPoint" />
          </mxGeometry>
        </mxCell>
        <mxCell id="y-BUJ9J83L-L55bnfvqN-50" value="3" style="endArrow=classic;startArrow=classic;html=1;rounded=0;exitX=1;exitY=0.5;exitDx=0;exitDy=0;entryX=0;entryY=0.5;entryDx=0;entryDy=0;fontFamily=Times New Roman;fontSize=21;strokeWidth=2;" edge="1" parent="1" source="y-BUJ9J83L-L55bnfvqN-47" target="y-BUJ9J83L-L55bnfvqN-48">
          <mxGeometry width="50" height="50" relative="1" as="geometry">
            <mxPoint x="324" y="616" as="sourcePoint" />
            <mxPoint x="376" y="564" as="targetPoint" />
          </mxGeometry>
        </mxCell>
        <mxCell id="y-BUJ9J83L-L55bnfvqN-51" value="2" style="endArrow=classic;startArrow=classic;html=1;rounded=0;entryX=0.5;entryY=1;entryDx=0;entryDy=0;fontFamily=Times New Roman;fontSize=21;strokeWidth=2;" edge="1" parent="1" source="y-BUJ9J83L-L55bnfvqN-48" target="y-BUJ9J83L-L55bnfvqN-15">
          <mxGeometry width="50" height="50" relative="1" as="geometry">
            <mxPoint x="330" y="630" as="sourcePoint" />
            <mxPoint x="450" y="590" as="targetPoint" />
          </mxGeometry>
        </mxCell>
        <mxCell id="y-BUJ9J83L-L55bnfvqN-52" value="3" style="endArrow=classic;startArrow=classic;html=1;rounded=0;entryX=0;entryY=1;entryDx=0;entryDy=0;exitX=1;exitY=0;exitDx=0;exitDy=0;fontFamily=Times New Roman;fontSize=21;strokeWidth=2;" edge="1" parent="1" source="y-BUJ9J83L-L55bnfvqN-41" target="y-BUJ9J83L-L55bnfvqN-15">
          <mxGeometry width="50" height="50" relative="1" as="geometry">
            <mxPoint x="477" y="571" as="sourcePoint" />
            <mxPoint x="510" y="490" as="targetPoint" />
          </mxGeometry>
        </mxCell>
        <mxCell id="y-BUJ9J83L-L55bnfvqN-53" value="2" style="endArrow=classic;startArrow=classic;html=1;rounded=0;entryX=0;entryY=0.5;entryDx=0;entryDy=0;exitX=1;exitY=0.5;exitDx=0;exitDy=0;fontFamily=Times New Roman;fontSize=21;strokeWidth=2;" edge="1" parent="1" source="y-BUJ9J83L-L55bnfvqN-40" target="y-BUJ9J83L-L55bnfvqN-15">
          <mxGeometry width="50" height="50" relative="1" as="geometry">
            <mxPoint x="487" y="581" as="sourcePoint" />
            <mxPoint x="520" y="500" as="targetPoint" />
          </mxGeometry>
        </mxCell>
        <mxCell id="y-BUJ9J83L-L55bnfvqN-54" value="3" style="endArrow=classic;startArrow=classic;html=1;rounded=0;entryX=0;entryY=0;entryDx=0;entryDy=0;exitX=1;exitY=1;exitDx=0;exitDy=0;fontFamily=Times New Roman;fontSize=21;strokeWidth=2;" edge="1" parent="1" source="y-BUJ9J83L-L55bnfvqN-42" target="y-BUJ9J83L-L55bnfvqN-15">
          <mxGeometry width="50" height="50" relative="1" as="geometry">
            <mxPoint x="410" y="470" as="sourcePoint" />
            <mxPoint x="490" y="470" as="targetPoint" />
          </mxGeometry>
        </mxCell>
        <mxCell id="y-BUJ9J83L-L55bnfvqN-55" value="2" style="endArrow=classic;startArrow=classic;html=1;rounded=0;entryX=0;entryY=0;entryDx=0;entryDy=0;exitX=1;exitY=1;exitDx=0;exitDy=0;fontFamily=Times New Roman;fontSize=21;strokeWidth=2;" edge="1" parent="1" source="y-BUJ9J83L-L55bnfvqN-43" target="y-BUJ9J83L-L55bnfvqN-42">
          <mxGeometry width="50" height="50" relative="1" as="geometry">
            <mxPoint x="379" y="308" as="sourcePoint" />
            <mxPoint x="471" y="360" as="targetPoint" />
          </mxGeometry>
        </mxCell>
        <mxCell id="y-BUJ9J83L-L55bnfvqN-56" value="2" style="endArrow=classic;startArrow=classic;html=1;rounded=0;entryX=0;entryY=0.5;entryDx=0;entryDy=0;exitX=1;exitY=0.5;exitDx=0;exitDy=0;fontFamily=Times New Roman;fontSize=21;strokeWidth=2;" edge="1" parent="1" source="y-BUJ9J83L-L55bnfvqN-44" target="y-BUJ9J83L-L55bnfvqN-42">
          <mxGeometry width="50" height="50" relative="1" as="geometry">
            <mxPoint x="324" y="324" as="sourcePoint" />
            <mxPoint x="376" y="376" as="targetPoint" />
          </mxGeometry>
        </mxCell>
        <mxCell id="y-BUJ9J83L-L55bnfvqN-58" value="2" style="endArrow=classic;startArrow=classic;html=1;rounded=0;entryX=0;entryY=0.5;entryDx=0;entryDy=0;exitX=1;exitY=0.5;exitDx=0;exitDy=0;fontFamily=Times New Roman;fontSize=21;strokeWidth=2;" edge="1" parent="1" source="y-BUJ9J83L-L55bnfvqN-46" target="y-BUJ9J83L-L55bnfvqN-40">
          <mxGeometry width="50" height="50" relative="1" as="geometry">
            <mxPoint x="328" y="422" as="sourcePoint" />
            <mxPoint x="376" y="404" as="targetPoint" />
          </mxGeometry>
        </mxCell>
        <mxCell id="y-BUJ9J83L-L55bnfvqN-59" value="4" style="endArrow=classic;startArrow=classic;html=1;rounded=0;exitX=1;exitY=0;exitDx=0;exitDy=0;entryX=0;entryY=1;entryDx=0;entryDy=0;dashed=1;strokeWidth=2;fontFamily=Times New Roman;fontSize=21;" edge="1" parent="1" source="y-BUJ9J83L-L55bnfvqN-48" target="y-BUJ9J83L-L55bnfvqN-16">
          <mxGeometry width="50" height="50" relative="1" as="geometry">
            <mxPoint x="700" y="480" as="sourcePoint" />
            <mxPoint x="750" y="430" as="targetPoint" />
          </mxGeometry>
        </mxCell>
        <mxCell id="y-BUJ9J83L-L55bnfvqN-60" value="6" style="endArrow=classic;startArrow=classic;html=1;rounded=0;exitX=1;exitY=0.5;exitDx=0;exitDy=0;entryX=0;entryY=0.5;entryDx=0;entryDy=0;dashed=1;strokeWidth=2;fontFamily=Times New Roman;fontSize=21;" edge="1" parent="1" source="y-BUJ9J83L-L55bnfvqN-48" target="y-BUJ9J83L-L55bnfvqN-21">
          <mxGeometry width="50" height="50" relative="1" as="geometry">
            <mxPoint x="484" y="576" as="sourcePoint" />
            <mxPoint x="656" y="484" as="targetPoint" />
          </mxGeometry>
        </mxCell>
        <mxCell id="y-BUJ9J83L-L55bnfvqN-61" value="5" style="endArrow=classic;startArrow=classic;html=1;rounded=0;exitX=1;exitY=0;exitDx=0;exitDy=0;entryX=0;entryY=0.5;entryDx=0;entryDy=0;dashed=1;strokeWidth=2;fontFamily=Times New Roman;fontSize=21;" edge="1" parent="1" source="y-BUJ9J83L-L55bnfvqN-15" target="y-BUJ9J83L-L55bnfvqN-19">
          <mxGeometry width="50" height="50" relative="1" as="geometry">
            <mxPoint x="470" y="380" as="sourcePoint" />
            <mxPoint x="750" y="340" as="targetPoint" />
          </mxGeometry>
        </mxCell>
        <mxCell id="y-BUJ9J83L-L55bnfvqN-63" value="1" style="endArrow=classic;startArrow=classic;html=1;rounded=0;entryX=1;entryY=0.5;entryDx=0;entryDy=0;exitX=0;exitY=1;exitDx=0;exitDy=0;fontFamily=Times New Roman;fontSize=21;strokeWidth=2;" edge="1" parent="1" source="y-BUJ9J83L-L55bnfvqN-42" target="y-BUJ9J83L-L55bnfvqN-45">
          <mxGeometry width="50" height="50" relative="1" as="geometry">
            <mxPoint x="490" y="330" as="sourcePoint" />
            <mxPoint x="490" y="390" as="targetPoint" />
          </mxGeometry>
        </mxCell>
        <mxCell id="y-BUJ9J83L-L55bnfvqN-66" value="West Bank Area" style="text;html=1;align=center;verticalAlign=middle;resizable=0;points=[];autosize=1;strokeColor=none;fillColor=none;fontFamily=Times New Roman;fontSize=25;fontColor=#4D9900;" vertex="1" parent="1">
          <mxGeometry x="285" y="660" width="190" height="40" as="geometry" />
        </mxCell>
        <mxCell id="y-BUJ9J83L-L55bnfvqN-67" value="East Bank Area" style="text;html=1;align=center;verticalAlign=middle;resizable=0;points=[];autosize=1;strokeColor=none;fillColor=none;fontFamily=Times New Roman;fontSize=25;fontColor=#FF8000;" vertex="1" parent="1">
          <mxGeometry x="690" y="660" width="180" height="40" as="geometry" />
        </mxCell>
        <mxCell id="y-BUJ9J83L-L55bnfvqN-69" value="&lt;font color=&quot;#3333ff&quot;&gt;River&lt;/font&gt;" style="text;html=1;align=center;verticalAlign=middle;resizable=0;points=[];autosize=1;strokeColor=none;fillColor=none;fontFamily=Times New Roman;fontSize=25;fontColor=#4D9900;" vertex="1" parent="1">
          <mxGeometry x="540" y="660" width="80" height="40" as="geometry" />
        </mxCell>
        <mxCell id="y-BUJ9J83L-L55bnfvqN-65" value="" style="rounded=0;whiteSpace=wrap;html=1;fillColor=#FF8000;strokeWidth=2;strokeColor=#FF8000;glass=0;opacity=10;" vertex="1" parent="1">
          <mxGeometry x="610" y="260" width="330" height="400" as="geometry" />
        </mxCell>
        <mxCell id="y-BUJ9J83L-L55bnfvqN-68" value="" style="rounded=0;whiteSpace=wrap;html=1;fillColor=#3333FF;strokeWidth=2;strokeColor=#3333FF;glass=0;shadow=0;opacity=25;" vertex="1" parent="1">
          <mxGeometry x="550" y="260" width="60" height="400" as="geometry" />
        </mxCell>
        <mxCell id="y-BUJ9J83L-L55bnfvqN-64" value="" style="rounded=0;whiteSpace=wrap;html=1;fillColor=#4D9900;strokeWidth=2;strokeColor=#4D9900;opacity=10;" vertex="1" parent="1">
          <mxGeometry x="220" y="260" width="330" height="400" as="geometry" />
        </mxCell>
      </root>
    </mxGraphModel>
  </diagram>
</mxfile>
